<?xml version="1.0" encoding="utf-8"?>
<!-- Generator: Adobe Illustrator 27.2.0, SVG Export Plug-In . SVG Version: 6.00 Build 0)  -->
<svg version="1.1" id="Ebene_1" xmlns="http://www.w3.org/2000/svg" xmlns:xlink="http://www.w3.org/1999/xlink" x="0px" y="0px"
	 viewBox="0 0 800 237.1" style="enable-background:new 0 0 800 237.1;" xml:space="preserve">
<style type="text/css">
	.st0{fill:#FFFFFF;}
	.st1{fill:#A6A6A6;}
	.st2{fill:url(#SVGID_1_);}
</style>
<g transform="scale(4.00216 4.0011)">
	<path class="st0" d="M198.6,52.3c0,3.1-2.5,5.7-5.7,5.7c0,0,0,0,0,0H7c-3.1,0-5.7-2.5-5.7-5.7V7c0-3.1,2.5-5.7,5.7-5.7h185.9
		c3.1,0,5.7,2.5,5.7,5.7c0,0,0,0,0,0L198.6,52.3L198.6,52.3z"/>
	<path class="st1" d="M192.9,59.3H7c-3.9,0-7-3.1-7-7V7c0-3.9,3.1-7,7-7h185.9c3.9,0,7,3.1,7,7v45.3
		C199.9,56.1,196.8,59.3,192.9,59.3L192.9,59.3z"/>
	<path d="M198.6,52.3c0,3.1-2.5,5.7-5.7,5.7c0,0,0,0,0,0H7c-3.1,0-5.7-2.5-5.7-5.7V7c0-3.1,2.5-5.7,5.7-5.7h185.9
		c3.1,0,5.7,2.5,5.7,5.7c0,0,0,0,0,0L198.6,52.3L198.6,52.3z"/>
	<path class="st0" d="M44.6,29.3c0-4.8,3.9-7.1,4.1-7.2c-2.2-3.3-5.7-3.7-6.9-3.7c-2.9-0.3-5.7,1.7-7.2,1.7c-1.5,0-3.8-1.7-6.3-1.7
		c-3.2,0-6.1,1.9-7.8,4.7c-3.4,5.8-0.9,14.4,2.4,19.1c1.6,2.3,3.5,4.9,6,4.8c2.4-0.1,3.3-1.5,6.2-1.5c2.9,0,3.7,1.5,6.2,1.5
		c2.6,0,4.2-2.3,5.8-4.6c1.9-2.6,2.6-5.2,2.6-5.4C49.7,36.9,44.7,35,44.6,29.3L44.6,29.3z M39.9,15.3c1.3-1.6,2.2-3.8,1.9-6.1
		c-1.9,0.1-4.2,1.3-5.6,2.9c-1.2,1.4-2.3,3.7-2,5.8C36.4,18.1,38.6,16.9,39.9,15.3z"/>
	
		<linearGradient id="SVGID_1_" gradientUnits="userSpaceOnUse" x1="-29.5" y1="127.4492" x2="-29.5" y2="163.4942" gradientTransform="matrix(23.7359 0 0 -23.7231 846.8555 3082.9014)">
		<stop  offset="0" style="stop-color:#1A1A1A;stop-opacity:0.1"/>
		<stop  offset="0.123" style="stop-color:#212121;stop-opacity:0.151"/>
		<stop  offset="0.308" style="stop-color:#353535;stop-opacity:0.227"/>
		<stop  offset="0.532" style="stop-color:#575757;stop-opacity:0.318"/>
		<stop  offset="0.783" style="stop-color:#858585;stop-opacity:0.421"/>
		<stop  offset="1" style="stop-color:#B3B3B3;stop-opacity:0.51"/>
	</linearGradient>
	<path class="st2" d="M192.9,0H93.3l39,59.3h60.6c3.9,0,7-3.1,7-7V7C199.9,3.1,196.8,0,192.9,0z"/>
	<g>
		<path class="st0" d="M79.5,46.7h-3.4l-1.8-5.8h-6.4l-1.8,5.8h-3.3L69.2,27h3.9L79.5,46.7L79.5,46.7z M73.8,38.5l-1.7-5.1
			c-0.2-0.5-0.5-1.8-1-3.7H71c-0.2,0.8-0.5,2.1-0.9,3.7l-1.6,5.1H73.8z M95.8,39.4c0,2.4-0.7,4.3-2,5.7c-1.2,1.2-2.6,1.9-4.4,1.9
			c-1.9,0-3.2-0.7-4.1-2v7.5h-3.2V37.1c0-1.5,0-3.1-0.1-4.7h2.8l0.2,2.3h0.1c1.1-1.7,2.7-2.5,4.8-2.5c1.7,0,3.1,0.7,4.2,2
			C95.3,35.5,95.8,37.2,95.8,39.4L95.8,39.4z M92.6,39.5c0-1.4-0.3-2.5-0.9-3.4c-0.7-0.9-1.6-1.4-2.8-1.4c-0.8,0-1.5,0.3-2.1,0.8
			c-0.6,0.5-1,1.2-1.2,2c-0.1,0.3-0.1,0.6-0.1,1v2.4c0,1,0.3,1.9,1,2.6c0.6,0.7,1.5,1.1,2.5,1.1c1.2,0,2.1-0.5,2.8-1.4
			C92.3,42.2,92.6,41,92.6,39.5z M112.2,39.4c0,2.4-0.7,4.3-2,5.7c-1.2,1.2-2.6,1.9-4.4,1.9c-1.9,0-3.2-0.7-4.1-2v7.5h-3.2V37.1
			c0-1.5,0-3.1-0.1-4.7h2.8l0.2,2.3h0.1c1.1-1.7,2.7-2.5,4.8-2.5c1.7,0,3.1,0.7,4.2,2C111.6,35.5,112.2,37.2,112.2,39.4L112.2,39.4z
			 M109,39.5c0-1.4-0.3-2.5-0.9-3.4c-0.7-0.9-1.6-1.4-2.7-1.4c-0.8,0-1.5,0.3-2.1,0.8c-0.6,0.5-1,1.2-1.2,2c-0.1,0.4-0.1,0.7-0.1,1
			v2.4c0,1,0.3,1.9,0.9,2.6c0.6,0.7,1.5,1.1,2.5,1.1c1.2,0,2.1-0.5,2.8-1.4C108.6,42.2,109,41,109,39.5z M130.5,41.2
			c0,1.7-0.6,3-1.8,4.1c-1.3,1.1-3.1,1.7-5.4,1.7c-2.1,0-3.8-0.4-5.1-1.2l0.7-2.6c1.4,0.8,2.9,1.2,4.6,1.2c1.2,0,2.1-0.3,2.8-0.8
			c0.7-0.5,1-1.3,1-2.1c0-0.8-0.3-1.5-0.8-2c-0.5-0.5-1.5-1.1-2.7-1.5c-3.5-1.3-5.2-3.2-5.2-5.6c0-1.6,0.6-2.9,1.8-4
			c1.2-1,2.8-1.6,4.8-1.6c1.8,0,3.3,0.3,4.5,0.9l-0.8,2.6c-1.1-0.6-2.4-0.9-3.8-0.9c-1.1,0-2,0.3-2.6,0.8c-0.5,0.5-0.8,1.1-0.8,1.8
			c0,0.8,0.3,1.4,0.9,1.9c0.5,0.5,1.5,1,2.9,1.5c1.7,0.7,2.9,1.5,3.7,2.4C130.1,38.6,130.5,39.8,130.5,41.2L130.5,41.2z M140.9,34.8
			h-3.5v6.9c0,1.8,0.6,2.6,1.8,2.6c0.6,0,1,0,1.4-0.1l0.1,2.4c-0.6,0.2-1.4,0.3-2.5,0.3c-1.2,0-2.2-0.4-2.9-1.1
			c-0.7-0.8-1.1-2-1.1-3.8v-7.2h-2.1v-2.4h2.1v-2.6l3.1-0.9v3.5h3.5L140.9,34.8L140.9,34.8z M156.6,39.5c0,2.2-0.6,4-1.9,5.4
			c-1.3,1.4-3,2.2-5.2,2.2c-2.1,0-3.8-0.7-5-2.1c-1.2-1.4-1.9-3.1-1.9-5.2c0-2.2,0.6-4,1.9-5.4c1.3-1.4,3-2.1,5.2-2.1
			c2.1,0,3.8,0.7,5,2.1C156,35.6,156.6,37.3,156.6,39.5L156.6,39.5z M153.3,39.5c0-1.3-0.3-2.4-0.8-3.4c-0.7-1.1-1.6-1.7-2.8-1.7
			c-1.3,0-2.2,0.6-2.9,1.7c-0.6,0.9-0.8,2.1-0.8,3.4c0,1.3,0.3,2.4,0.8,3.4c0.7,1.1,1.6,1.7,2.9,1.7c1.2,0,2.2-0.6,2.8-1.7
			C153.1,42,153.3,40.8,153.3,39.5L153.3,39.5z M166.9,35.2c-0.3-0.1-0.7-0.1-1-0.1c-1.1,0-2,0.4-2.6,1.3c-0.5,0.7-0.8,1.7-0.8,2.8
			v7.5h-3.2v-9.7c0-1.5,0-3-0.1-4.5h2.8l0.1,2.7h0.1c0.3-0.9,0.9-1.7,1.6-2.3c0.7-0.5,1.5-0.8,2.3-0.8c0.3,0,0.6,0,0.8,0.1
			L166.9,35.2L166.9,35.2z M181,38.9c0,0.5,0,1-0.1,1.4h-9.5c0,1.4,0.5,2.5,1.4,3.2c0.8,0.7,1.8,1,3.1,1c1.4,0,2.7-0.2,3.8-0.7
			l0.5,2.2c-1.3,0.6-2.9,0.9-4.8,0.9c-2.2,0-3.9-0.6-5.2-1.9c-1.3-1.3-1.9-3-1.9-5.2c0-2.1,0.6-3.9,1.8-5.4c1.2-1.5,2.9-2.3,5-2.3
			c2,0,3.6,0.8,4.7,2.3C180.6,35.6,181,37.1,181,38.9L181,38.9z M178,38.1c0-0.9-0.2-1.7-0.6-2.4c-0.5-0.9-1.4-1.3-2.5-1.3
			c-1,0-1.9,0.4-2.5,1.3c-0.5,0.7-0.8,1.5-0.9,2.5L178,38.1L178,38.1z"/>
	</g>
	<g>
		<path class="st0" d="M67,20c-0.9,0-1.6,0-2.3-0.1v-9.5c0.9-0.1,1.8-0.2,2.7-0.2c3.6,0,5.3,1.8,5.3,4.7C72.7,18.2,70.7,20,67,20z
			 M67.5,11.4c-0.5,0-0.9,0-1.3,0.1v7.2c0.2,0,0.5,0,1,0c2.4,0,3.7-1.4,3.7-3.9C71.1,12.6,69.8,11.4,67.5,11.4z M77.9,20.1
			c-2,0-3.4-1.5-3.4-3.6c0-2.2,1.4-3.7,3.5-3.7c2,0,3.4,1.5,3.4,3.6C81.4,18.5,80,20.1,77.9,20.1z M78,13.9c-1.1,0-1.8,1-1.8,2.5
			c0,1.4,0.7,2.5,1.8,2.5c1.1,0,1.8-1.1,1.8-2.5C79.8,15,79,13.9,78,13.9L78,13.9z M93,12.9l-2.2,7h-1.4l-0.9-3
			c-0.2-0.7-0.4-1.5-0.6-2.3h0c-0.1,0.8-0.3,1.5-0.6,2.3l-1,3h-1.4l-2.1-7h1.6l0.8,3.3c0.2,0.8,0.3,1.5,0.5,2.2h0
			c0.1-0.6,0.3-1.3,0.6-2.2l1-3.3h1.3l0.9,3.3c0.2,0.8,0.4,1.6,0.6,2.3h0c0.1-0.7,0.3-1.5,0.5-2.3l0.8-3.3L93,12.9L93,12.9z
			 M101.1,19.9h-1.6v-4c0-1.2-0.5-1.9-1.4-1.9c-0.9,0-1.6,0.8-1.6,1.7v4.2H95v-5c0-0.6,0-1.3-0.1-2h1.4l0.1,1.1h0
			c0.4-0.7,1.3-1.2,2.2-1.2c1.5,0,2.4,1.1,2.4,2.9L101.1,19.9L101.1,19.9z M105.3,19.9h-1.6V9.7h1.6V19.9z M111,20.1
			c-2,0-3.4-1.5-3.4-3.6c0-2.2,1.4-3.7,3.5-3.7c2,0,3.4,1.5,3.4,3.6C114.5,18.5,113.1,20.1,111,20.1z M111.1,13.9
			c-1.1,0-1.8,1-1.8,2.5c0,1.4,0.7,2.5,1.8,2.5c1.1,0,1.8-1.1,1.8-2.5C112.9,15,112.2,13.9,111.1,13.9L111.1,13.9z M120.6,19.9
			l-0.1-0.8h0c-0.5,0.6-1.2,1-2,1c-1.3,0-2.1-0.9-2.1-2.1c0-1.7,1.5-2.6,4.1-2.6v-0.1c0-0.9-0.5-1.4-1.5-1.4c-0.7,0-1.3,0.2-1.8,0.5
			l-0.3-1c0.6-0.4,1.5-0.6,2.4-0.6c1.8,0,2.7,1,2.7,2.9v2.6c0,0.7,0,1.3,0.1,1.7L120.6,19.9L120.6,19.9z M120.4,16.4
			c-1.7,0-2.6,0.4-2.6,1.4c0,0.7,0.4,1.1,1.1,1.1c0.8,0,1.5-0.6,1.5-1.4V16.4z M129.5,19.9l-0.1-1.1h0c-0.4,0.8-1.2,1.3-2.2,1.3
			c-1.7,0-2.9-1.5-2.9-3.6c0-2.2,1.3-3.7,3.1-3.7c0.9,0,1.6,0.3,2,0.9h0v-4h1.6V18c0,0.7,0,1.3,0.1,1.9L129.5,19.9L129.5,19.9z
			 M129.2,15.8c0-1-0.6-1.8-1.6-1.8c-1.2,0-1.9,1-1.9,2.5c0,1.4,0.7,2.4,1.8,2.4c1,0,1.7-0.8,1.7-1.9L129.2,15.8L129.2,15.8z
			 M140.6,20.1c-2,0-3.4-1.5-3.4-3.6c0-2.2,1.4-3.7,3.5-3.7c2,0,3.4,1.5,3.4,3.6C144.1,18.5,142.7,20.1,140.6,20.1L140.6,20.1z
			 M140.7,13.9c-1.1,0-1.8,1-1.8,2.5c0,1.4,0.7,2.5,1.8,2.5c1.1,0,1.8-1.1,1.8-2.5C142.5,15,141.8,13.9,140.7,13.9L140.7,13.9z
			 M152.5,19.9h-1.6v-4c0-1.2-0.5-1.9-1.4-1.9c-0.9,0-1.6,0.8-1.6,1.7v4.2h-1.6v-5c0-0.6,0-1.3-0.1-2h1.4l0.1,1.1h0
			c0.4-0.7,1.3-1.2,2.2-1.2c1.5,0,2.4,1.1,2.4,2.9V19.9z M162.9,14.1h-1.7v3.4c0,0.9,0.3,1.3,0.9,1.3c0.3,0,0.5,0,0.7-0.1l0,1.2
			c-0.3,0.1-0.7,0.2-1.2,0.2c-1.2,0-2-0.7-2-2.4v-3.5h-1v-1.2h1v-1.3l1.5-0.5v1.7h1.7L162.9,14.1L162.9,14.1z M171.1,19.9h-1.6v-4
			c0-1.3-0.5-1.9-1.4-1.9c-0.8,0-1.6,0.5-1.6,1.7v4.2h-1.6V9.7h1.6v4.2h0c0.5-0.8,1.2-1.1,2.1-1.1c1.5,0,2.4,1.1,2.4,3L171.1,19.9
			L171.1,19.9z M179.6,16.8h-4.7c0,1.3,0.9,2.1,2.2,2.1c0.7,0,1.3-0.1,1.9-0.3l0.2,1.1c-0.7,0.3-1.4,0.4-2.3,0.4
			c-2.2,0-3.5-1.4-3.5-3.5c0-2.1,1.3-3.8,3.3-3.8c1.8,0,2.9,1.3,2.9,3.3C179.6,16.3,179.6,16.6,179.6,16.8L179.6,16.8z M178.1,15.7
			c0-1.1-0.5-1.8-1.5-1.8c-0.9,0-1.6,0.8-1.7,1.8H178.1L178.1,15.7z"/>
	</g>
</g>
</svg>
