<svg version="1.1" id="Layer_1" xmlns="http://www.w3.org/2000/svg" xmlns:xlink="http://www.w3.org/1999/xlink" x="0px" y="0px"
	 width="100%" viewBox="0 0 1200 1200" enable-background="new 0 0 1200 1200" xml:space="preserve">
<path fill="#000000" opacity="1.000000" stroke="none" 
	d="
M665.000000,1201.000000 
	C444.833344,1201.000000 225.166672,1200.988892 5.500045,1201.093628 
	C1.750785,1201.095337 0.906084,1200.249023 0.907021,1196.500000 
	C1.006199,799.500000 1.006199,402.500000 0.907021,5.500023 
	C0.906084,1.750933 1.750933,0.906086 5.500023,0.907022 
	C402.500000,1.006185 799.500000,1.006186 1196.500000,0.907022 
	C1200.249023,0.906086 1201.093994,1.750932 1201.093140,5.500023 
	C1200.993896,402.500000 1200.993896,799.500000 1201.093140,1196.500000 
	C1201.093994,1200.249023 1200.249268,1201.096069 1196.500000,1201.093872 
	C1019.500000,1200.986206 842.500000,1201.000000 665.000000,1201.000000 
z"/>
<path fill="#D82605" opacity="1.000000" stroke="none" 
	d="
M1010.677917,1015.660889 
	C1023.201721,1028.913818 1035.576294,1041.843872 1048.619629,1055.472656 
	C1042.915771,1054.646240 1039.562500,1051.103638 1035.790283,1048.798218 
	C1014.841370,1035.994751 994.144958,1022.778381 973.353821,1009.716492 
	C957.135986,999.527771 940.871948,989.411865 924.720947,979.118591 
	C922.492249,977.698303 921.540405,977.879333 919.938538,979.967468 
	C907.856934,995.716003 895.697632,1011.406799 883.375671,1026.967651 
	C880.718872,1030.322754 876.113831,1030.532227 872.353577,1031.926270 
	C858.698730,1036.988525 845.033203,1042.006104 831.794312,1048.097534 
	C830.380798,1048.747925 829.090515,1049.287720 827.513794,1048.722656 
	C827.752991,1047.935913 827.748535,1046.881592 828.272583,1046.384155 
	C839.408875,1035.810059 848.297668,1022.559570 861.479675,1014.598694 
	C869.049194,1010.027283 870.066223,1004.904175 870.121765,997.463135 
	C870.231934,982.694153 869.306335,968.010376 868.007874,953.326111 
	C867.800049,950.977051 866.715149,949.009460 865.587830,946.010803 
	C862.233643,960.003235 859.098816,973.080688 855.825500,986.735962 
	C852.634338,980.402039 854.027527,974.275391 853.246887,968.431030 
	C851.481689,955.215942 850.323547,941.836609 850.189636,928.511230 
	C850.067139,916.312866 843.345825,907.945740 836.647705,899.059998 
	C817.263977,873.345520 798.143555,847.432678 778.875671,821.630615 
	C772.607544,813.236877 766.203247,804.944702 759.336060,795.915588 
	C756.806885,803.301575 754.417847,810.233154 752.058960,817.174988 
	C743.028137,843.751221 734.774414,870.630066 724.583557,896.753540 
	C720.797485,906.459045 723.538635,913.495178 726.833862,921.575562 
	C732.996460,936.687378 738.944641,951.886658 745.494995,968.337952 
	C730.175903,960.513184 715.934204,953.238831 701.045410,945.633911 
	C704.402527,960.791321 707.589233,975.179199 710.775940,989.567017 
	C710.467590,989.725281 710.159302,989.883545 709.850952,990.041870 
	C699.495728,972.704346 689.140503,955.366882 678.331787,937.270142 
	C674.850769,968.792175 671.462097,999.477844 668.073486,1030.163574 
	C667.805725,1030.194092 667.538025,1030.224609 667.270325,1030.255127 
	C651.322449,991.010864 635.374573,951.766602 619.248840,912.084595 
	C612.187744,923.639648 605.018494,934.748962 598.561707,946.257996 
	C596.135254,950.583252 598.822937,955.681702 599.329285,960.357300 
	C600.510315,971.262878 602.416992,982.089050 603.986755,992.953552 
	C604.590393,997.131592 605.077515,1001.326477 604.848572,1005.983032 
	C598.152771,994.147827 591.456909,982.312561 584.505310,970.025330 
	C577.159180,993.201538 570.049500,1015.627502 562.943665,1038.054688 
	C561.999329,1041.035278 561.634460,1042.826416 557.832703,1039.654785 
	C546.505188,1030.204590 534.542236,1021.519958 522.964478,1012.362976 
	C520.403870,1010.337769 518.534729,1010.025330 515.755371,1011.993713 
	C502.900970,1021.097229 489.960876,1030.075684 476.790497,1041.354370 
	C478.176666,1025.366089 479.463837,1010.519836 480.860107,994.414856 
	C464.937500,1008.517334 449.677216,1022.033264 434.416931,1035.549194 
	C434.003326,1035.178955 433.589752,1034.808716 433.176147,1034.438599 
	C437.449402,1027.631104 441.702332,1020.810669 445.999481,1014.018311 
	C461.923981,988.846680 477.762878,963.619873 493.854706,938.555664 
	C499.029938,930.494812 507.600006,925.417786 513.444031,917.988953 
	C518.828064,911.144897 524.826477,914.293762 530.863403,915.480469 
	C531.852173,915.674805 532.691711,916.072327 534.226074,915.297729 
	C529.183838,908.057129 524.190613,900.886780 519.197327,893.716614 
	C516.108765,889.281494 513.109863,884.780029 509.898682,880.435547 
	C507.913788,877.750183 507.609253,875.286316 509.251282,872.266907 
	C517.230530,857.594360 525.204956,842.915955 532.889404,828.088379 
	C534.985962,824.042969 538.756836,824.996887 541.805115,824.135620 
	C546.968079,822.676758 552.349365,821.993652 557.634888,820.963806 
	C559.793518,820.543213 559.933044,819.668457 558.523254,817.977112 
	C556.541626,815.599487 554.965088,812.880615 552.951477,810.534180 
	C550.715393,807.928345 551.448486,806.631775 554.487854,806.035522 
	C565.308655,803.912476 576.135437,801.819458 587.907715,799.530945 
	C579.662720,794.356201 572.097961,789.593201 564.516296,784.857361 
	C561.325073,782.863892 558.124084,780.883240 554.876709,778.983704 
	C553.157166,777.977722 552.858215,776.910217 553.494873,774.912720 
	C558.252930,759.985046 562.860535,745.009277 567.477478,730.036865 
	C570.392029,720.584900 573.241394,711.112854 575.392029,701.277832 
	C564.834351,713.769409 554.313843,726.292725 543.705444,738.741089 
	C537.092468,746.500977 530.289856,754.099304 523.674377,761.857117 
	C514.617188,772.478333 505.705322,783.223572 496.639008,793.836975 
	C489.905609,801.719482 482.928192,809.394348 476.233185,817.308533 
	C465.410156,830.102417 454.203644,842.564636 443.695099,855.634705 
	C436.892426,864.095459 429.532104,872.116211 422.257141,880.185791 
	C417.533752,885.425049 417.680939,885.088806 421.706512,890.293518 
	C429.331726,900.151733 438.297577,908.904968 445.783661,919.578552 
	C434.059692,923.112671 422.648834,926.597595 411.210297,929.989197 
	C395.726379,934.580383 380.247498,939.193542 364.700104,943.561096 
	C362.016113,944.315063 361.974518,945.755188 361.980743,947.835144 
	C362.018677,960.500671 361.956451,973.166687 362.033051,985.831909 
	C362.048859,988.444946 361.707031,989.571777 358.514099,990.294373 
	C354.569366,991.187134 350.638611,990.584839 346.731262,991.459045 
	C343.585754,992.162720 342.916260,993.426880 342.941711,996.350464 
	C343.069427,1011.014893 342.999756,1025.681030 342.999481,1040.346558 
	C342.999451,1041.496948 342.999481,1042.647217 342.999481,1043.797607 
	C342.746490,1043.883545 342.493500,1043.969482 342.240540,1044.055298 
	C339.517090,1038.058105 336.697510,1032.102295 334.088898,1026.055420 
	C327.352142,1010.439148 320.648956,994.807678 314.075256,979.122437 
	C312.669556,975.768311 311.390320,975.553955 309.157227,978.317505 
	C299.551147,990.205505 287.475677,999.776672 277.829376,1011.633484 
	C276.490112,1013.279602 275.015015,1014.815247 273.602814,1016.402039 
	C273.230286,1016.131592 272.857727,1015.861206 272.485168,1015.590759 
	C273.966064,1012.159912 275.340485,1008.678284 276.945770,1005.306641 
	C285.274933,987.812378 294.219574,970.582397 301.780945,952.764221 
	C305.239929,944.613220 311.163757,940.176941 317.987671,935.972351 
	C325.075928,931.604980 332.174286,927.253723 339.291382,922.933533 
	C341.272614,921.730835 341.247711,920.555969 339.591156,919.075439 
	C333.611816,913.731384 327.765472,908.232910 321.659149,903.039368 
	C319.209686,900.955994 317.891113,898.918884 317.921539,895.523987 
	C318.087189,877.026978 318.000214,858.527649 318.000122,840.029114 
	C318.000122,838.421082 318.000122,836.813049 318.000122,835.204956 
	C317.671326,835.086426 317.342529,834.967834 317.013733,834.849243 
	C299.154755,863.712158 281.295776,892.575073 263.096100,921.988647 
	C259.560242,916.317749 255.852798,910.825867 252.644958,905.056152 
	C250.727234,901.606873 249.347107,901.277161 246.381409,904.024048 
	C231.336411,917.958557 216.154358,931.745789 200.964401,945.522888 
	C187.628006,957.618774 174.228973,969.645752 160.836884,981.680115 
	C147.940353,993.269043 135.039764,1004.853760 122.099304,1016.393555 
	C109.292793,1027.813843 96.434280,1039.175903 83.532082,1050.622559 
	C82.268578,1048.334717 84.110458,1047.463623 85.150162,1046.388306 
	C96.471245,1034.679443 107.827415,1023.004578 119.177025,1011.323364 
	C130.759705,999.402100 142.531158,987.657654 153.885971,975.523254 
	C169.999176,958.303833 186.542908,941.505005 202.856430,924.483276 
	C218.708817,907.942810 234.616653,891.452942 250.389954,874.842163 
	C258.971405,865.804993 267.979614,857.191895 276.414215,848.030762 
	C290.806366,832.398987 305.569763,817.129883 320.457458,801.974487 
	C322.865479,799.523132 323.807678,798.934631 326.398071,802.441589 
	C334.470154,813.369995 343.317993,823.724121 351.824066,834.333740 
	C362.884583,848.129456 374.010437,861.875549 384.840912,875.850159 
	C386.642334,878.174561 389.127472,879.862671 390.456177,882.683167 
	C391.624786,885.163879 393.259369,883.495300 394.250427,882.176025 
	C400.929871,873.284973 407.434784,864.261353 414.194092,855.432129 
	C426.733521,839.052673 439.469757,822.823792 452.007141,806.442810 
	C461.747314,793.716553 471.239685,780.800781 480.968506,768.065674 
	C493.779785,751.295654 506.749908,734.646973 519.584473,717.894531 
	C528.446655,706.327209 537.174133,694.656738 545.999329,683.060974 
	C557.322327,668.183167 568.684937,653.335510 580.021301,638.467896 
	C580.513184,637.822693 580.912842,637.107300 581.564026,636.102783 
	C588.444580,642.752075 593.811340,650.623352 599.913940,657.845398 
	C608.610474,668.137268 617.040100,678.654785 625.577820,689.080688 
	C635.757507,701.511658 645.895752,713.976807 656.120911,726.370178 
	C661.764954,733.211121 667.550171,739.935730 673.586182,746.822754 
	C677.521179,748.017395 679.011536,751.378418 681.239380,753.911072 
	C686.662415,760.076172 691.128479,767.086487 697.842651,772.555908 
	C699.317139,773.874878 700.375427,773.291504 701.610474,772.657593 
	C721.214417,762.594299 741.851440,754.846436 761.920715,745.823059 
	C768.481934,742.872925 769.684631,743.380310 773.591858,749.637268 
	C799.972168,791.881714 826.364136,834.118896 852.804565,876.325867 
	C854.882263,879.642578 857.547729,881.696289 861.194641,882.928345 
	C869.562744,885.755310 877.960510,888.588379 886.473694,890.818115 
	C896.262451,893.381897 904.113953,898.126038 910.199524,906.201416 
	C917.437683,915.806213 926.592285,923.687012 934.757263,932.459045 
	C944.166199,942.567688 953.801147,952.501526 963.305786,962.531738 
	C976.576050,976.536011 990.618042,989.836731 1002.756287,1004.898438 
	C1003.502319,1005.824280 1004.524414,1006.405396 1005.919189,1007.059326 
	C1008.529236,1009.473999 1009.447327,1012.449097 1010.677917,1015.660889 
z"/>
<path fill="#BF1B2C" opacity="1.000000" stroke="none" 
	d="
M563.840454,623.817993 
	C555.205139,618.140564 549.124390,610.343445 541.692871,603.982483 
	C527.413452,591.759949 513.459839,579.185608 498.547729,567.689331 
	C487.968903,559.533691 477.183472,551.742371 466.019867,544.420593 
	C444.953766,530.604187 424.328064,532.580811 404.863434,547.681824 
	C387.566681,561.101013 376.070770,579.044495 366.027710,598.097534 
	C357.057129,615.115906 349.275299,632.628540 343.512573,651.008179 
	C343.378387,651.436157 342.889313,651.752869 341.566711,653.259583 
	C335.920410,575.250732 348.866150,503.107056 393.942322,438.387329 
	C391.896515,438.137848 390.759369,439.287231 389.390472,440.087311 
	C368.014587,452.581238 350.555817,469.752716 334.030975,487.748657 
	C319.921844,503.113831 307.983643,520.253967 296.926453,538.033752 
	C285.158234,556.956848 274.600098,576.501038 265.208588,596.647949 
	C252.392273,624.141846 241.403381,652.389038 232.038910,681.264465 
	C218.779114,722.151245 207.791504,763.607544 199.800537,805.862244 
	C198.857697,810.847778 199.033737,816.183105 196.266754,821.557312 
	C193.125122,804.580078 189.593674,788.387451 187.265900,772.023682 
	C185.320679,758.349304 183.357452,744.659302 181.755432,730.919739 
	C179.807693,714.215088 178.246704,697.471619 177.208771,680.729004 
	C176.089294,662.671387 175.711426,644.538086 175.900360,626.404175 
	C176.054108,611.648376 176.780807,596.909424 178.170990,582.275330 
	C181.934525,542.658142 189.151352,503.699585 202.875183,466.149811 
	C212.435852,439.990906 224.351990,415.060730 239.679703,391.725861 
	C254.176971,369.655273 271.094482,349.652283 290.694336,332.103668 
	C309.044922,315.673523 329.060364,301.416718 350.769287,289.518799 
	C372.293396,277.722137 394.716217,268.243805 418.085022,260.885010 
	C438.143555,254.568604 458.563507,249.950882 479.384125,246.851425 
	C492.790466,244.855713 506.249969,243.882477 519.734985,243.066223 
	C525.854309,242.695816 525.868774,243.015442 522.943481,248.228210 
	C514.827881,262.690125 509.876678,278.245911 507.003510,294.510712 
	C503.393768,314.945190 502.093140,335.595551 503.159607,356.253510 
	C504.151611,375.468506 506.066162,394.626343 508.776855,413.738159 
	C514.782654,456.082153 524.604919,497.546448 536.404053,538.551086 
	C544.431763,566.449036 552.977356,594.225037 563.931152,621.172546 
	C564.050354,621.465759 563.989868,621.831970 564.049133,622.545105 
	C564.173279,623.263855 564.261536,623.601624 563.840454,623.817993 
z"/>
<path fill="#DF3627" opacity="1.000000" stroke="none" 
	d="
M831.611084,465.346863 
	C848.408020,471.331024 863.588806,479.867401 878.487732,488.972198 
	C889.466187,495.681183 900.010254,502.981628 909.959473,511.635803 
	C913.824829,518.862122 913.227539,526.636658 914.282837,534.040161 
	C917.458862,556.319580 921.701294,578.364319 927.223267,600.182068 
	C932.661804,621.669861 938.895264,642.920715 946.510437,663.725647 
	C954.758423,686.259216 964.442444,708.202759 974.864685,729.823303 
	C981.524353,743.638733 989.249878,756.873962 996.964539,770.085999 
	C1007.626709,788.345886 1018.828735,806.313721 1031.917725,822.978943 
	C1034.650146,826.457947 1034.959839,830.550415 1036.618652,834.673218 
	C1036.182007,848.433289 1035.628784,861.863464 1034.261353,875.277954 
	C1033.464233,883.098389 1032.690063,890.949524 1031.941040,898.787109 
	C1031.116943,907.409424 1029.858276,915.990234 1028.452759,924.830078 
	C1026.120117,926.342957 1024.606079,925.425720 1023.375000,923.885010 
	C1014.803345,913.157043 1004.974182,903.544312 996.652649,892.534668 
	C989.279297,882.779358 981.100769,873.622437 974.523193,863.249451 
	C973.583862,861.768250 972.052795,861.748840 970.274902,861.293945 
	C967.780151,859.060547 967.259155,856.199097 966.411682,853.535828 
	C955.850525,820.346008 943.181396,788.005005 927.194275,757.033264 
	C912.266907,728.114624 894.844727,700.835876 873.279907,676.326660 
	C869.128418,671.608276 863.734070,668.002563 860.671570,661.873718 
	C861.378296,656.301025 858.002441,652.263733 856.663574,647.692993 
	C848.991760,621.500610 843.250916,594.909668 838.229004,568.094177 
	C832.769287,538.941345 830.643982,509.487030 828.428894,480.010864 
	C828.229675,477.360168 827.514282,474.762787 827.675049,472.076141 
	C827.839172,469.334198 828.206787,466.722168 831.611084,465.346863 
z"/>
<path fill="#D62E29" opacity="1.000000" stroke="none" 
	d="
M831.677734,464.996460 
	C828.190063,472.557007 830.691650,480.353760 831.398132,487.720123 
	C832.681458,501.102844 833.307556,514.539246 834.858215,527.903015 
	C837.003723,546.393921 839.788147,564.775940 843.570068,582.988281 
	C846.879272,598.924622 850.495789,614.803467 854.331482,630.621582 
	C856.206970,638.355774 858.936707,645.880371 861.180359,653.528931 
	C861.925049,656.067688 862.359375,658.697449 862.942078,661.696411 
	C860.649353,663.459167 859.176819,661.906799 857.722839,660.545654 
	C850.178467,653.482605 842.052368,647.134094 833.832581,641.046997 
	C842.898193,654.443909 849.350281,669.246704 855.252930,684.325256 
	C865.647278,710.877869 871.753540,738.482056 874.208435,766.789429 
	C876.540161,793.675781 876.389404,820.634338 873.372131,847.515015 
	C873.203125,849.020874 873.015076,850.523132 872.113159,851.775024 
	C870.451599,854.081238 868.567871,854.221375 866.915955,851.861389 
	C865.568420,849.936218 865.145813,847.575500 864.455078,845.349060 
	C855.838684,817.576782 845.385986,790.649658 828.686218,766.527466 
	C824.132324,759.949402 818.470154,754.279358 813.861633,747.315674 
	C814.163818,745.261536 814.116211,743.718567 813.441101,742.085022 
	C799.816589,709.122131 788.554321,675.414673 780.126770,640.706482 
	C776.278992,624.859558 772.184875,609.063354 769.392456,593.016357 
	C767.629333,582.884399 765.759094,572.750549 764.244995,562.557068 
	C762.265686,549.231873 760.641479,535.876770 759.466858,522.484070 
	C758.407227,510.402283 756.477661,498.361938 756.587952,486.206940 
	C756.692322,474.707581 755.960266,463.250366 755.634705,451.773560 
	C755.539185,448.404816 754.979675,444.740021 757.697754,441.421509 
	C777.422791,445.624329 796.550781,451.084930 815.237549,458.001801 
	C820.701172,460.024139 825.983154,462.537415 831.677734,464.996460 
z"/>
<path fill="#E63C26" opacity="1.000000" stroke="none" 
	d="
M1036.898438,834.528687 
	C1032.358643,831.114502 1030.534546,825.411743 1027.094971,820.763916 
	C1010.849365,798.811523 996.973816,775.346741 983.588501,751.534729 
	C969.765259,726.943787 958.600769,701.210449 948.251099,675.073853 
	C935.234192,642.201294 925.822998,608.260742 918.589355,573.674194 
	C914.566406,554.439026 911.586975,535.065674 909.644958,515.522522 
	C909.548950,514.556885 909.717224,513.564941 909.932800,512.265503 
	C913.405396,512.536133 915.318115,515.336609 917.530884,517.270874 
	C938.551636,535.646606 957.333435,556.016663 973.138062,579.175537 
	C989.058167,602.503662 1001.418457,627.477966 1011.149292,653.939636 
	C1020.179443,678.496033 1026.503540,703.727295 1030.802368,729.436951 
	C1032.932983,742.178833 1033.970215,755.132935 1035.171753,768.040833 
	C1037.219604,790.040710 1036.936646,812.043091 1036.898438,834.528687 
z"/>
<path fill="#D0292A" opacity="1.000000" stroke="none" 
	d="
M757.597046,441.076935 
	C758.343262,455.913483 758.566284,470.697754 759.031250,485.474365 
	C759.449524,498.770844 760.997009,511.986542 762.335083,525.213562 
	C763.220459,533.965698 763.924622,542.741943 765.065613,551.460876 
	C766.269165,560.657410 767.773071,569.820007 769.370667,578.958130 
	C771.028137,588.439148 772.904480,597.883118 774.776001,607.325195 
	C777.813171,622.648560 782.224182,637.638916 785.889587,652.809570 
	C792.315247,679.404724 802.028687,704.916687 811.166748,730.622498 
	C812.996521,735.769714 815.989380,740.562134 815.959656,746.697266 
	C814.213623,748.213867 812.842041,747.329773 811.428528,746.339661 
	C809.119690,744.722473 806.860535,743.037415 804.554626,741.416260 
	C789.512634,730.841187 773.639404,729.683899 756.982971,737.154114 
	C755.057617,738.017578 753.226440,739.454163 750.574707,738.103882 
	C745.755005,732.196289 744.755127,725.077087 742.421082,718.540222 
	C730.929993,686.358093 722.623535,653.282349 715.131836,619.983521 
	C714.217041,615.917603 715.051147,611.698242 713.849487,607.305725 
	C715.401978,597.026855 716.867310,587.144531 718.317139,577.259827 
	C719.220032,571.103699 720.502441,564.970520 720.908386,558.780762 
	C721.849487,544.430176 723.570984,530.105774 722.997131,515.682190 
	C722.119202,493.615570 720.101990,471.731232 712.032349,450.887054 
	C710.381592,446.623077 708.824402,442.256866 706.572327,438.309601 
	C704.143799,434.052948 705.934265,433.595764 709.546692,434.038452 
	C718.666199,435.156067 727.800476,436.175812 736.892944,437.484314 
	C743.684082,438.461670 750.419189,439.828125 757.597046,441.076935 
z"/>
<path fill="#C9232B" opacity="1.000000" stroke="none" 
	d="
M700.133423,331.639771 
	C686.809082,348.355042 676.391418,366.177063 671.575012,386.882538 
	C667.931946,402.543671 666.004272,418.468964 667.127808,434.496948 
	C668.790771,458.220459 672.337952,481.703369 676.737000,505.112488 
	C679.606934,520.384460 681.474731,535.893799 683.287903,551.392639 
	C686.381958,577.840820 678.116211,600.465088 663.359253,621.856750 
	C660.497192,622.361450 660.123962,620.452087 659.658325,618.655151 
	C656.856384,607.843018 655.418457,596.779541 653.487061,585.802307 
	C651.152710,572.535400 649.638306,559.154297 648.141174,545.800842 
	C647.180969,537.236145 646.301453,528.624329 645.446594,520.032776 
	C643.168884,497.140625 643.918274,474.150665 642.807983,451.222717 
	C642.164551,437.935913 643.898438,424.636200 643.571411,411.306671 
	C643.142212,393.810150 645.633667,376.489746 647.027222,359.096375 
	C648.131104,345.319092 650.013550,331.654419 651.721924,317.967834 
	C652.811157,309.241638 654.162476,300.506500 655.900757,291.880219 
	C658.462952,279.164917 660.000732,266.246368 663.444580,253.704605 
	C663.885559,252.098602 663.936829,250.288544 665.141724,249.082748 
	C666.776245,247.446930 666.568542,245.608810 666.291138,243.658203 
	C665.674927,239.326859 667.372620,235.306839 668.262024,231.237213 
	C669.823120,224.093964 672.694214,217.271774 673.837463,209.996338 
	C674.106079,208.286667 675.102112,206.944946 676.665283,205.466965 
	C692.801880,204.869034 708.626282,204.128098 724.583069,208.103134 
	C726.938721,210.357651 727.159424,212.709137 726.366699,215.546036 
	C718.985229,241.962646 712.835449,268.669861 707.789124,295.630432 
	C706.291992,303.629089 705.373779,311.718842 703.847961,319.724121 
	C703.070740,323.802032 701.542114,327.449158 700.133423,331.639771 
z"/>
<path fill="#C11C2C" opacity="1.000000" stroke="none" 
	d="
M607.127747,472.663391 
	C606.349121,476.909729 603.998657,480.253662 603.942383,484.646210 
	C603.752686,485.220764 603.604492,485.390015 603.280884,485.847504 
	C601.296021,498.755737 599.325317,511.362396 599.891357,524.657654 
	C599.144714,527.494812 599.626648,529.905579 599.690918,532.623413 
	C600.313049,546.315674 599.331177,559.703247 600.776978,573.130798 
	C596.387451,569.039795 594.021484,563.767273 591.584961,558.806885 
	C581.016235,537.290466 572.620056,515.039124 569.871338,490.930511 
	C568.802673,481.557190 567.609070,472.227448 568.031189,462.798492 
	C569.120972,438.454895 574.549316,415.255646 587.178040,393.212341 
	C580.164307,395.800873 576.063843,400.754578 572.126770,405.793793 
	C562.989319,417.489044 557.839111,431.363770 550.963379,445.419189 
	C548.838196,437.758911 546.386597,431.008636 545.169006,424.042664 
	C543.357300,413.677277 541.772644,403.167450 542.090454,392.622253 
	C542.903198,365.652069 550.970032,341.013519 567.832275,319.757690 
	C578.128906,306.778198 590.787415,296.305450 605.348938,288.257446 
	C606.210754,287.781128 607.548096,287.560455 607.415649,286.434906 
	C607.248413,285.013763 605.810486,285.217102 604.684021,284.970032 
	C595.288696,282.909393 586.002563,284.239868 576.720825,285.756165 
	C574.761169,286.076294 572.836914,286.146729 570.256897,285.557648 
	C583.713135,268.502533 600.754822,257.724396 621.562012,251.942566 
	C627.028931,253.729904 627.574097,254.614639 626.618286,259.446533 
	C621.356323,286.049835 617.064941,312.830322 613.969360,339.749237 
	C612.742004,350.422333 612.334656,361.359436 611.024414,371.975769 
	C608.978333,388.554688 610.190674,405.195190 607.998413,421.756592 
	C606.171265,435.560028 607.317078,449.693024 607.720947,463.671051 
	C607.805237,466.588104 606.904480,469.348083 607.127747,472.663391 
z"/>
<path fill="#C6202C" opacity="1.000000" stroke="none" 
	d="
M676.584839,205.109222 
	C676.209473,211.788300 674.628723,218.210663 672.846741,224.648682 
	C668.373047,240.811539 665.024902,257.248718 661.966370,273.737610 
	C660.304443,282.697479 658.528076,291.641449 657.123291,300.642548 
	C654.235046,319.148987 651.643799,337.683563 649.740784,356.341187 
	C648.695801,366.587219 648.838135,376.940216 647.052673,387.082153 
	C645.534912,395.703766 646.051270,404.345123 646.042114,412.980652 
	C646.029297,425.101593 644.649475,437.291290 645.417358,449.294983 
	C646.702087,469.377380 645.087097,489.490509 647.430420,509.592438 
	C648.631104,519.891846 649.552795,530.369080 650.157959,540.808655 
	C650.587463,548.216797 651.735779,555.626160 652.641418,563.018738 
	C654.012329,574.210083 656.263245,585.290649 657.846924,596.459839 
	C659.037109,604.853821 661.087280,613.059021 662.881470,621.701416 
	C658.354126,629.229553 652.919678,635.821411 646.403442,641.908081 
	C642.834778,643.027588 641.799561,640.878357 640.834106,638.418457 
	C639.977051,636.234741 640.750488,633.937927 640.010254,631.362366 
	C641.221069,620.565369 643.151001,610.201355 643.727905,599.762512 
	C644.237244,590.545227 643.735291,581.192932 642.779907,571.993652 
	C641.546570,560.118774 639.731995,548.283508 636.997498,536.628235 
	C632.928528,519.285400 628.440002,502.071136 621.155151,485.350708 
	C623.240723,480.813507 621.402100,476.561340 621.171204,472.394684 
	C620.175537,454.429321 620.206726,436.488190 621.206970,418.523010 
	C621.928040,405.570953 622.916138,392.625153 623.388794,379.671509 
	C624.160583,358.518860 627.078064,337.634155 629.841797,316.702637 
	C632.523499,296.392578 636.120667,276.259460 640.445618,256.246643 
	C641.075562,253.331848 641.481567,250.322021 643.679932,247.505692 
	C650.969727,247.180038 657.938477,247.180038 665.069885,247.180038 
	C660.010986,235.694107 641.043640,227.857132 610.474609,224.548660 
	C617.727905,220.213867 625.151978,217.736618 632.419373,215.151978 
	C645.196472,210.607864 658.298950,207.121185 671.906067,205.954605 
	C673.341064,205.831558 674.746216,205.360718 676.584839,205.109222 
z"/>
<path fill="#CF282A" opacity="1.000000" stroke="none" 
	d="
M700.415283,331.896149 
	C698.378357,326.999481 700.760193,322.225281 701.601440,317.517609 
	C704.785828,299.697876 707.472717,281.782684 711.603455,264.125153 
	C715.461792,247.632034 719.365234,231.159042 723.871399,214.830124 
	C724.397827,212.922455 724.622498,210.931534 724.992310,208.576782 
	C726.522156,208.707870 728.373413,209.909439 729.542236,208.382690 
	C730.477966,207.160355 728.884827,205.705841 728.217957,204.453033 
	C721.880981,192.549957 714.669189,181.261581 705.099487,171.627243 
	C704.249329,170.771332 702.402710,169.958282 703.447021,168.506622 
	C704.190369,167.473358 705.949646,167.897324 707.219666,168.199997 
	C722.122192,171.751526 735.994446,177.317505 747.973511,187.322281 
	C756.091919,194.102737 763.842102,201.217041 771.245239,208.741592 
	C772.404907,209.920242 773.481689,211.221207 775.959351,211.204605 
	C775.017456,200.443359 774.010620,189.636993 776.198120,177.493256 
	C779.249512,186.250916 781.731079,193.666580 785.398804,200.974777 
	C786.765076,211.348145 782.181580,220.287689 779.779175,229.621231 
	C774.977356,248.276886 770.021484,266.881714 766.184692,285.776428 
	C764.101990,296.033264 762.039124,306.288361 760.265259,316.601685 
	C759.940796,318.488678 759.114624,320.054840 757.322876,321.554993 
	C750.952087,322.309906 745.297363,320.855591 740.048828,317.970520 
	C734.796997,315.083618 734.768799,312.985931 739.723206,309.667877 
	C744.063965,306.760773 748.731140,304.317780 750.662903,298.840393 
	C751.505066,296.452362 752.453857,294.256470 751.561279,291.246796 
	C731.815857,301.363129 714.838928,314.732697 700.415283,331.896149 
z"/>
<path fill="#D62E29" opacity="1.000000" stroke="none" 
	d="
M757.442810,321.896301 
	C758.658203,309.859680 761.139954,298.045105 763.483704,286.191498 
	C766.984619,268.484894 771.493774,251.040009 776.037231,233.599930 
	C778.795654,223.011414 782.087402,212.561813 785.365234,201.658234 
	C788.730591,206.958481 792.135010,212.462875 797.285950,218.122757 
	C794.653809,204.714386 793.982605,192.329590 796.352234,179.032333 
	C798.971497,184.223083 799.963013,189.205811 801.792847,193.834778 
	C807.624878,208.588623 816.427673,220.879135 828.941589,230.672852 
	C831.544617,232.710083 833.142822,236.031281 835.456482,239.052780 
	C834.647888,243.909058 831.419739,247.667099 830.658875,252.740524 
	C828.105835,255.407593 825.970764,254.153778 823.803040,252.689957 
	C822.750732,251.979324 821.619446,250.685974 820.288330,251.830261 
	C819.145386,252.812744 819.659485,254.302979 819.970825,255.586349 
	C820.505493,257.790497 821.928528,259.381622 823.640259,260.773041 
	C825.040039,261.910889 826.710205,262.886261 826.614563,265.469452 
	C827.253052,268.561920 826.495850,271.135315 825.803406,273.684296 
	C822.540955,285.695374 820.601074,297.974731 818.099915,310.139557 
	C815.359375,323.468475 813.838013,336.935455 811.580383,350.307861 
	C811.309570,351.911926 811.279236,353.663025 809.359009,354.947388 
	C804.132568,349.402740 799.377930,343.632507 794.470459,337.995331 
	C784.815918,326.905243 772.069153,322.759064 757.442810,321.896301 
z"/>
<path fill="#CA242B" opacity="1.000000" stroke="none" 
	d="
M713.617737,607.144165 
	C718.222900,613.776062 718.076843,621.854675 719.848999,629.367432 
	C727.167786,660.394470 735.225159,691.187439 746.047729,721.208618 
	C747.846313,726.197754 749.320923,731.303711 750.989807,736.741577 
	C751.880005,738.902771 750.884216,740.071655 749.548096,740.855957 
	C732.173218,751.054504 716.569031,763.923950 699.227905,774.168213 
	C698.809326,774.415405 698.267761,774.355957 697.436401,774.245972 
	C695.752136,773.965698 694.453491,773.685425 693.539734,772.575378 
	C687.223022,764.901367 680.905212,757.228027 674.630066,749.520081 
	C674.243591,749.045288 674.216614,748.277771 673.961487,747.289551 
	C681.790833,726.871582 688.275818,706.349915 694.006958,685.581177 
	C697.340210,673.502319 700.879211,661.475769 703.962585,649.333557 
	C707.488708,635.447266 710.929138,621.528870 713.617737,607.144165 
z"/>
<path fill="#DA3128" opacity="1.000000" stroke="none" 
	d="
M828.777588,253.412613 
	C829.015991,247.803848 829.941650,242.872330 835.271118,239.509491 
	C844.237488,249.817841 853.232605,259.838867 863.953064,268.644043 
	C863.998779,272.976257 862.628357,276.751190 861.793274,280.627533 
	C858.034363,298.075500 853.806030,315.433136 851.879028,333.226776 
	C851.786804,334.078369 851.264099,334.744965 850.315918,335.576233 
	C838.686523,331.150818 828.546692,324.401672 818.400574,317.514465 
	C819.882507,320.785034 822.081116,323.254059 824.886108,325.446991 
	C827.747742,327.684265 830.092407,330.579895 832.681274,333.169403 
	C838.013062,338.502502 838.018005,338.497559 844.559509,336.199799 
	C846.025574,338.856537 841.352844,342.952087 845.610046,344.283997 
	C848.013489,345.035950 850.267273,340.937927 853.639099,340.657928 
	C854.990906,342.619598 853.485168,344.748566 852.831848,346.315308 
	C851.231506,350.153198 852.574402,352.501556 855.336487,354.903748 
	C857.913269,357.144897 861.664734,360.090515 860.504028,363.125488 
	C859.438965,365.910217 854.697815,365.280426 851.492432,364.957397 
	C837.419434,363.539093 833.109619,371.669281 828.084167,385.284027 
	C827.358887,387.248810 827.164612,389.409576 826.377563,393.112427 
	C821.008789,379.506531 814.787903,367.784363 808.990356,355.473938 
	C810.228149,342.425323 811.610840,329.785950 814.224304,317.248627 
	C816.622314,305.744629 818.216003,294.061798 820.822510,282.583069 
	C822.105957,276.931030 823.563965,271.318634 824.989746,265.284515 
	C825.935120,263.412415 827.271729,262.823059 828.870789,263.369629 
	C835.366943,265.590027 842.346130,266.301636 848.639526,269.722595 
	C848.798828,269.799316 848.881104,269.838440 848.824707,269.831726 
	C842.251282,266.901978 836.869934,262.269409 831.181885,258.104034 
	C829.730103,257.040863 828.054565,255.997101 828.777588,253.412613 
z"/>
<path fill="#F04524" opacity="1.000000" stroke="none" 
	d="
M1003.750977,436.543732 
	C1006.741394,434.194916 1009.473938,432.208862 1012.426636,429.971313 
	C1012.134583,429.324829 1012.153015,428.908661 1012.276062,428.710327 
	C1008.936768,428.952301 1005.918823,428.959473 1002.452515,428.899841 
	C999.254456,425.299530 999.695435,408.040253 1002.644958,404.886841 
	C1003.088745,404.412354 1003.727417,404.135010 1004.628845,403.450806 
	C1009.420044,401.354523 1014.460571,401.445282 1018.920105,398.762268 
	C1013.721130,395.521118 1008.490967,393.209778 1002.416016,391.893158 
	C998.304810,386.418884 999.045959,381.088196 1002.642700,375.481964 
	C1012.363708,375.340027 1021.406006,377.323242 1030.418823,379.691223 
	C1044.433228,383.373322 1057.242065,389.700867 1069.696167,396.907166 
	C1076.568970,400.883972 1076.618652,400.872192 1074.110596,408.601318 
	C1068.118652,427.066437 1055.459595,440.117706 1039.743530,451.458191 
	C1039.835327,445.906769 1041.940430,441.475250 1043.426636,435.314789 
	C1031.392700,447.380920 1019.031311,456.263824 1002.467896,458.078613 
	C1000.653748,457.617218 999.968933,456.520508 999.894470,455.120361 
	C999.555725,448.751709 998.568176,442.239838 1003.750977,436.543732 
z"/>
<path fill="#C51F2C" opacity="1.000000" stroke="none" 
	d="
M643.588928,247.120682 
	C643.892456,256.427185 640.917603,265.186340 639.348511,274.183563 
	C637.092712,287.119080 634.983643,300.075989 632.842834,313.028625 
	C630.398682,327.816650 629.994751,342.843719 627.361694,357.531555 
	C625.429199,368.311279 626.068298,379.097900 625.270569,389.848572 
	C623.549011,413.049500 622.248535,436.323883 623.017944,459.629608 
	C623.231689,466.104584 623.715332,472.570343 623.963623,479.044617 
	C624.045166,481.169159 624.236206,483.486511 621.451172,484.850769 
	C618.997803,478.497192 616.356445,472.244934 612.854492,466.316071 
	C609.898010,467.672058 608.784729,470.223450 607.342834,472.928925 
	C604.647217,469.552979 605.255432,465.441284 605.032227,461.523254 
	C603.563538,435.736206 606.066162,410.009338 607.462036,384.343201 
	C608.699951,361.581390 610.753052,338.734192 614.535583,316.112732 
	C617.759155,296.833832 620.285095,277.436554 624.394592,258.310059 
	C624.941895,255.762939 623.607483,254.217621 622.148315,252.196350 
	C628.731323,248.977051 636.061707,248.490631 643.588928,247.120682 
z"/>
<path fill="#D82F29" opacity="1.000000" stroke="none" 
	d="
M970.868408,860.255432 
	C974.257935,859.797791 976.032837,861.572632 977.665161,863.888855 
	C992.518250,884.966003 1009.535889,904.285339 1026.405029,923.723450 
	C1026.727783,924.095215 1027.165527,924.367065 1027.833008,924.878235 
	C1027.381470,935.017761 1025.548828,944.814575 1023.650696,954.571167 
	C1019.955933,973.562500 1015.889099,992.481445 1011.960022,1011.426941 
	C1011.698242,1012.689575 1011.298218,1013.923462 1010.894775,1015.577209 
	C1008.485229,1014.246948 1006.496704,1012.203247 1005.076599,1009.230591 
	C1001.693420,1004.537537 1000.940857,999.355591 1000.116699,994.169800 
	C993.314148,951.362671 983.312622,909.290527 971.042969,867.738586 
	C970.353455,865.403381 969.136780,863.028687 970.868408,860.255432 
z"/>
<path fill="#DD3428" opacity="1.000000" stroke="none" 
	d="
M850.385376,335.922455 
	C848.280579,327.256958 851.384888,319.062836 852.602295,310.809937 
	C854.362305,298.878601 857.709473,287.180328 860.412170,275.390106 
	C860.928894,273.135895 861.311829,270.769226 863.808167,269.157898 
	C873.571167,276.948914 883.478882,284.358551 893.903870,291.584595 
	C895.421265,295.632599 893.635559,299.116455 892.856323,302.552155 
	C889.802124,316.018707 887.028503,329.521393 885.194397,343.216003 
	C884.718872,346.766754 884.108093,350.372192 881.300720,353.536713 
	C877.973511,355.585480 874.958191,357.378906 870.877319,357.796265 
	C872.587891,354.565735 873.960632,351.665924 875.631470,348.949493 
	C876.446350,347.624725 878.351135,346.152710 877.063782,344.953491 
	C875.604370,343.594147 873.421692,342.564606 870.941711,343.926117 
	C867.967773,345.558807 865.364258,347.899231 861.980286,348.815735 
	C861.871155,348.506348 861.662292,348.219727 861.695984,347.965271 
	C862.679993,340.545319 862.676025,340.568268 855.199341,337.956299 
	C853.676208,337.424194 852.236572,336.653351 850.385376,335.922455 
z"/>
<path fill="#E23827" opacity="1.000000" stroke="none" 
	d="
M881.373840,353.899933 
	C883.252625,337.465576 885.686829,321.123901 889.804199,305.105042 
	C890.896240,300.856506 890.316284,296.060089 893.813843,292.172302 
	C897.441284,293.624603 900.364075,294.321259 903.247864,290.492462 
	C904.945862,288.237946 906.697021,290.135590 908.058838,292.029907 
	C912.495972,298.202118 913.798218,305.416656 915.299683,312.599548 
	C917.145691,321.430420 919.663269,330.154419 919.014648,339.337738 
	C918.504272,346.562988 917.070801,353.562531 914.268311,360.262604 
	C912.813965,363.739532 911.177551,365.190826 908.007019,361.595978 
	C904.176147,357.252350 899.054993,354.451904 894.348511,351.186676 
	C892.921021,350.196289 891.417908,350.014557 889.341492,350.718628 
	C886.690979,351.617279 884.458069,353.351776 881.373840,353.899933 
z"/>
<path fill="#C11B2C" opacity="1.000000" stroke="none" 
	d="
M629.321533,191.786255 
	C616.856201,198.495651 604.310608,203.535767 590.416077,205.118851 
	C576.505310,206.703781 565.331604,201.320129 554.720581,193.331390 
	C550.868408,190.431213 547.591492,187.081390 543.856750,183.093918 
	C549.055420,183.288269 552.510681,186.386780 556.713196,187.479691 
	C566.845703,190.114807 576.761841,189.668854 586.758728,187.523392 
	C601.639465,184.329788 615.559998,178.024109 630.571350,173.929764 
	C632.829956,174.599945 633.275024,176.203796 633.006531,177.865875 
	C632.260315,182.485825 631.730896,187.178284 629.321533,191.786255 
z"/>
<path fill="#EC4125" opacity="1.000000" stroke="none" 
	d="
M1004.590698,403.098450 
	C1001.444824,411.124420 1003.640503,419.778198 1002.004028,428.400696 
	C987.727478,429.360596 973.487793,429.136047 959.125183,426.389618 
	C957.183228,419.606445 956.888855,413.348358 961.650391,407.436646 
	C974.776428,407.536987 987.378113,405.874939 999.957520,403.973999 
	C1001.379211,403.759155 1002.771484,403.349396 1004.590698,403.098450 
z"/>
<path fill="#E63C26" opacity="1.000000" stroke="none" 
	d="
M961.544067,407.097229 
	C961.100098,413.228821 960.194946,419.289886 959.092163,425.700470 
	C935.346924,423.938263 906.805603,408.526489 900.101929,390.744385 
	C919.220764,402.066345 939.486877,407.140259 961.544067,407.097229 
z"/>
<path fill="#C61F2B" opacity="1.000000" stroke="none" 
	d="
M629.424316,192.066711 
	C627.461060,187.909042 629.471436,184.058731 630.205994,180.077240 
	C630.532043,178.309402 630.715576,176.515289 630.962891,174.308243 
	C647.488159,168.246277 663.976501,165.223221 679.719360,175.955658 
	C685.089233,179.616455 689.589844,184.328705 693.551208,191.072693 
	C689.129456,189.056152 685.861633,187.339233 682.434875,186.042175 
	C667.381775,180.344482 652.836121,183.287720 638.470520,188.842682 
	C635.602722,189.951614 632.697266,190.963257 629.424316,192.066711 
z"/>
<path fill="#C11B2B" opacity="1.000000" stroke="none" 
	d="
M717.317810,147.042847 
	C706.162964,144.398712 695.589966,141.605408 687.357361,133.068115 
	C681.108826,126.588295 678.631958,119.049362 678.020447,110.504982 
	C677.902710,108.860100 678.003540,107.199577 678.003540,104.679596 
	C680.755066,108.799744 682.339172,112.927971 685.506348,116.154991 
	C690.087769,120.823051 695.083435,124.765373 700.952209,127.378868 
	C709.745422,131.294739 718.761597,134.710052 727.889160,138.643433 
	C728.665344,142.796265 725.215271,143.262497 723.118896,144.870636 
	C721.511353,146.103851 719.483887,146.236694 717.317810,147.042847 
z"/>
<path fill="#EC4124" opacity="1.000000" stroke="none" 
	d="
M1003.664795,436.221985 
	C1002.107849,443.081207 1002.059265,450.155334 1002.042603,457.684235 
	C992.385254,460.303864 982.845520,458.936676 973.440369,456.712280 
	C966.037842,454.961517 959.024353,452.041901 952.577454,447.568878 
	C970.840088,449.501678 987.764893,445.916046 1003.664795,436.221985 
z"/>
<path fill="#EB4024" opacity="1.000000" stroke="none" 
	d="
M1002.541138,375.096497 
	C1002.931274,380.435944 1001.473938,385.618011 1002.022156,391.372742 
	C990.671265,389.147278 979.157043,387.915771 967.493225,387.992065 
	C961.380493,388.032043 955.267151,387.999115 949.064514,387.499268 
	C965.401489,377.703247 983.226196,374.228851 1002.541138,375.096497 
z"/>
<path fill="#E23626" opacity="1.000000" stroke="none" 
	d="
M908.741882,439.951477 
	C905.787537,436.867493 906.697021,432.224152 904.191467,428.548340 
	C898.932678,420.833344 890.866943,416.599091 883.909241,411.000946 
	C873.752014,402.828522 869.263062,395.863342 875.328918,382.888367 
	C878.513245,384.552765 876.515808,387.798859 877.520081,390.226501 
	C880.398743,397.185486 885.683350,401.548187 891.976013,404.971161 
	C897.130249,407.774933 902.063843,410.894592 906.017151,415.242615 
	C911.793823,421.596069 911.970032,429.043610 909.641418,436.841370 
	C909.365234,437.766296 909.163696,438.713531 908.741882,439.951477 
z"/>
<path fill="#C61F2B" opacity="1.000000" stroke="none" 
	d="
M717.162964,147.421936 
	C719.509521,143.218231 724.001221,141.933823 727.802002,139.133026 
	C742.906494,143.932037 755.995483,154.833359 753.263062,174.700211 
	C746.410522,158.669479 732.811157,151.932449 717.162964,147.421936 
z"/>
<path fill="#C51F2C" opacity="1.000000" stroke="none" 
	d="
M639.571350,631.184204 
	C642.471008,632.166992 641.990234,634.895935 642.817078,636.963867 
	C643.497498,638.665527 644.041870,640.411316 645.823425,641.835510 
	C642.419495,646.893860 637.550049,650.363831 632.435791,653.808594 
	C634.875732,646.305664 637.593262,639.012634 639.571350,631.184204 
z"/>
<path fill="#FF0000" opacity="1.000000" stroke="none" 
	d="
M599.905212,532.520813 
	C598.547852,530.615234 598.899353,528.181946 599.625183,525.434937 
	C599.878235,527.450134 599.925110,529.769348 599.905212,532.520813 
z"/>
<path fill="#D82605" opacity="1.000000" stroke="none" 
	d="
M79.664795,1053.008057 
	C80.385048,1052.337891 80.902733,1051.951538 81.420441,1051.565308 
	C81.509911,1051.935669 81.798729,1052.475464 81.653465,1052.646362 
	C81.101288,1053.295776 80.610489,1054.555420 79.664795,1053.008057 
z"/>
<path fill="#BF1B2C" opacity="1.000000" stroke="none" 
	d="
M563.895386,623.117676 
	C564.764954,623.192017 565.044373,623.673523 564.718323,624.343933 
	C564.685303,624.411743 564.048035,624.185730 563.511108,623.896362 
	C563.455933,623.567505 563.580811,623.438354 563.895386,623.117676 
z"/>
<path fill="#D82605" opacity="1.000000" stroke="none" 
	d="
M433.138367,1035.196045 
	C433.226135,1035.810425 433.257050,1036.693115 432.323486,1036.101440 
	C432.287048,1036.078247 432.645508,1035.432251 433.138367,1035.196045 
z"/>
<path fill="#D82605" opacity="1.000000" stroke="none" 
	d="
M826.772217,1049.818848 
	C826.573364,1050.322144 825.945679,1050.730835 825.908691,1050.683105 
	C825.191467,1049.755127 826.216675,1049.818115 826.772217,1049.818848 
z"/>
<path fill="#C51F2C" opacity="1.000000" stroke="none" 
	d="
M603.345947,486.045288 
	C603.254272,485.875275 603.421021,485.626831 603.753174,485.220947 
	C603.796021,485.352600 603.691223,485.653748 603.345947,486.045288 
z"/>
<path fill="#000000" opacity="1.000000" stroke="none" 
	d="
M971.109009,859.617737 
	C980.349731,889.256958 987.834290,918.930115 994.172363,948.932983 
	C998.089417,967.475281 1001.636292,986.045410 1004.066650,1004.834106 
	C1004.209900,1005.941284 1004.672180,1007.007141 1004.956787,1008.508667 
	C992.345520,997.370300 981.018982,984.610596 969.504517,972.030884 
	C968.717529,971.171143 967.864502,970.372070 967.051208,969.535950 
	C955.346497,957.502991 943.198486,945.862732 932.078064,933.311951 
	C922.867126,922.916199 912.229736,913.882874 903.841858,902.670959 
	C900.979858,898.845520 896.350647,896.266541 891.119446,894.848267 
	C879.300049,891.643738 867.581360,887.956055 856.068298,883.784424 
	C851.015198,881.953552 849.736633,876.027222 847.058167,871.821350 
	C833.331421,850.266724 819.869141,828.543640 806.341675,806.862427 
	C794.551147,787.965149 782.681580,769.115234 771.124146,750.076172 
	C768.806274,746.257935 766.833923,746.226624 763.143372,747.877930 
	C741.967529,757.353271 720.681702,766.582825 699.417969,775.860901 
	C698.415710,776.298218 696.784119,777.449219 697.076294,774.447021 
	C714.359558,761.097656 731.806885,748.359863 750.855835,737.422607 
	C756.068176,734.882263 760.971436,732.258667 766.396851,731.058838 
	C782.037415,727.599915 796.010803,731.374695 808.531006,741.078796 
	C810.877014,742.897217 813.077698,744.903137 815.651611,746.969116 
	C829.878479,761.564209 840.300720,778.376831 848.720886,796.440552 
	C857.070862,814.353699 863.807068,832.904053 869.106018,852.291626 
	C873.672791,843.775452 873.220093,789.947998 872.368591,776.425537 
	C870.786621,751.302551 866.487488,726.717285 858.972778,702.739136 
	C851.443420,678.714172 841.622375,655.687134 827.294800,634.659790 
	C840.380798,642.005676 851.854614,651.272705 862.646484,661.960571 
	C873.488770,672.781067 883.530334,683.892944 892.464661,695.963379 
	C903.259583,710.547729 913.052551,725.798340 921.864868,741.643433 
	C933.788086,763.082031 944.049805,785.330078 953.020508,808.159668 
	C959.625610,824.968872 965.517578,842.036682 971.109009,859.617737 
z"/>
<path fill="#000000" opacity="1.000000" stroke="none" 
	d="
M828.644653,252.967178 
	C836.382385,258.682129 843.805725,264.249237 851.457886,270.070831 
	C851.784424,270.664459 851.882080,271.003662 851.468384,271.205841 
	C842.226868,270.492767 834.121582,267.336212 825.429199,264.931824 
	C816.700012,259.013458 816.133423,257.617188 817.349976,245.671997 
	C821.533264,247.343414 824.614136,250.585205 828.644653,252.967178 
z"/>
<path fill="#000000" opacity="1.000000" stroke="none" 
	d="
M851.503296,270.510193 
	C852.285034,270.777496 852.883362,271.229706 853.481689,271.681885 
	C852.718323,272.084259 851.966125,272.067810 851.091187,271.345337 
	C851.077942,270.944275 851.198914,270.819702 851.503296,270.510193 
z"/>
<path fill="#000000" opacity="1.000000" stroke="none" 
	d="
M1012.126648,429.139862 
	C1012.205505,428.186432 1012.780884,427.810608 1013.431152,428.256805 
	C1014.014709,428.657196 1013.341553,429.013763 1012.865845,429.531982 
	C1012.530762,429.591431 1012.414673,429.463013 1012.126648,429.139862 
z"/>
</svg>